<svg id="Layer_1" data-name="Layer 1" xmlns="http://www.w3.org/2000/svg" viewBox="0 0 395.65 293.01"><path d="M319.64,243.42l13.1-1.36-11,36.89,19,4.09,9.94-42.83,9-.94c-4,17.92,2.19,31.46,18.06,36.2,18.26,5.46,39.92-8.9,49.27-40.2-2.57,12.81-.12,23.64,10,26.67,8.27,2.48,17.95-2.9,25.68-22,2,6.36,5.61,9.91,11.22,11.59,6.1,1.82,17.37-3,24.36-13.71a21.22,21.22,0,0,0,11.36,8.28c11.3,3.38,25.77-2.92,33.95-24.5,16.22-.3,26.92-12.29,30.8-25.28,2.6-8.69,2.54-13.76,1.43-18.51l-18.25-5.46c2.12,6.63,2.13,12.95-.13,20.48a23.47,23.47,0,0,1-9.73,12.6c1.89-14.77-1.83-28.68-15.78-32.85-14.2-4.25-28.71,6.26-35.64,29.44-2.8,9.37-3.43,17.11-2.59,23.37-4,6.47-8.34,8.72-11.74,7.7-4.64-1.38-7.23-7.52-4.54-16.51L496.08,154l-16.81-5-17.41,58.25-7.19,24.06c-2,6.66-6.36,13.88-11.86,12.23-3.48-1-6.93-4.28-3.81-14.71l19.14-64.05-16.81-5-11.35,38c-10.91,36.52-24.67,67.76-45.25,61.61-8.4-2.51-10.9-12.1-8-21.66.2-.68.41-1.34.62-2,1.37,4.2,4.48,7,9.15,8.37,8.69,2.6,20.62-4.57,24.43-17.32,4.59-15.36-2.05-22.71-10.74-25.31-9.59-2.86-25.53,1.94-35.44,23.11l-10.65,1,.88-3.79L367.71,180,350,174.71,337.14,227l-13.46,1.2c4-21.3-1.81-32.81-15.24-36.82-13.62-4.08-24.21,6-30.05,15l11.54,11c2.17-4.09,7.29-11.71,13.66-9.81,6.52,1.95,6.5,10.09,3.59,22.08l-15,1.34-2.76,15.59,13.1-1.36c-6.49,16.9-16.46,25.62-23.22,23.59-8.11-2.42-11.37-8.44-8.94-16.56,1.65-5.5,4.31-9.13,9-13.39l-10.72-9.52a38.74,38.74,0,0,0-13.37,19.36c-1.56,5.22-4.52,26.75,20.11,34.11C293.71,288.26,310.34,271.28,319.64,243.42Zm195-14.15c-5.49-1.64-7.18-9.68-3.41-22.36,3.6,4.59,9,8.72,16.57,11.62C523.76,227.67,519.06,230.6,514.61,229.27Zm12.5-40.77c5.62,1.68,6.63,8.25,4.74,17.22-7.76-3.18-12.7-7.33-15-11.48C519.88,189.8,523.44,187.4,527.11,188.5ZM393.27,217c3.19.95,4.14,4.08,3,7.84-1,3.49-5,9.61-16.72,4.93C384.11,219.71,389.72,215.94,393.27,217Z" transform="translate(-219.59 -148.94)"/><path d="M615.25,254.53l-19.12-3.84-9,55c-1.5,9.22-8.17,10.66-12.17,9.46-4.58-1.36-6.79-5.45-4.57-12.9l10.85-36.35L567,261.63l-15.81,53c-2.31,7.73-6.49,10.22-10.21,9.11-3.43-1-5.24-4.37-3.53-10.1l11.45-38.36-29.77-8.89L514.75,281l15.4,2.73c-2,5.64-4.71,12.62-6.42,18.35a26.79,26.79,0,0,1-9.66,13.64c0-11.89-4.43-22.21-16.05-25.68-14-4.19-28.35,6.19-35.19,29.09-3.06,10.25-3.49,18.52-2.24,25-3.14,6.2-6.26,7.36-10.19,6.19-4.59-1.37-6.25-6.23-4-13.67l17.44-58.4-16.61-5-15.47,51.82-7.35,24.62c-1.62,5.44-4.87,13.2-11.46,11.23-3.43-1-6.59-5.08-2.91-17.4l16.32-54.68-16.6-4.95-9.49,31.77c-10.77,36.08-24.35,66.94-44.68,60.88-8.3-2.48-10.77-11.95-7.95-21.4.2-.67.41-1.32.62-2,1.34,4.15,4.42,6.9,9,8.27,8.59,2.57,20.37-4.52,24.13-17.11,4.53-15.18-2-22.44-10.62-25-8.11-2.42-20.82.72-30.45,14.8l-19.1,20c3.49-14,7.06-28.42,11.36-43.76l-16.89-5L304.1,351.53c-3.44,13.62-13.49,30.58-22.37,27.93-7.44-2.22,2.64-18.23,8.28-37.13,3.68-12.31,3.32-26.76-10.71-30.95-14.6-4.36-33.22,4.74-44.17,32l13,15.09c5.16-13.11,15.24-32.24,23.26-29.85,3.72,1.11,3.44,7.26,1.82,12.7-7.18,24-21.69,49.65-2.79,55.3,10.12,3,18.18-2.59,25.19-14.43-7.87,37.47-24.22,45.9-40,41.17-17.17-5.12-23-20.26-15.17-46.31l-16.6-5c-9.32,31.21-3.7,59.39,24.35,67.77,24.62,7.35,50.79-5.11,59.43-34,3.1-10.4,5.82-20.54,8.43-30.67L330,360.85c-2.19,15.68,4.12,27.39,18.58,31.71,18,5.39,39.43-8.81,48.66-39.73-2.53,12.66-.69,23.18,8.19,25.83,9.16,2.74,19.29-2.41,27.05-21.3,2,6.32,5.55,9.84,11.11,11.49,6.58,2,15.68-.3,22.27-13A20.88,20.88,0,0,0,476,362.63c12,3.59,27.67-3.9,35.28-29.38.23-.79.46-1.58.66-2.38a38.59,38.59,0,0,0,9-6.12c1.09,11.07,7.07,15.06,12.77,16.77,9.82,2.93,20.25-.83,28.29-22.18,2.47,7.46,7,10.56,12.42,12.19,10.31,3.08,21.95-5.61,25.79-18.49C602.92,304.17,613.17,263.57,615.25,254.53ZM364,334.79c3.15.94,4.1,4,3,7.75-1,3.45-5,9.49-16.52,4.88C354.93,337.48,360.48,333.75,364,334.79Zm129.34-29.05c5,1.5,6.31,6.93,5.15,14.47a14.63,14.63,0,0,1-2.16-.48c-6.67-2-11.07-4.43-13.9-7.11C485.55,307.47,489.37,304.57,493.32,305.74ZM481,346c-5.41-1.62-7.09-9.53-3.4-22a42.79,42.79,0,0,0,16.4,8.75l1,.26C490.79,343.93,485.75,347.45,481,346Z" transform="translate(-219.59 -148.94)"/></svg>